<?xml version="1.0" encoding="utf-8" standalone="no"?>
<!DOCTYPE svg PUBLIC "-//W3C//DTD SVG 1.1//EN"
  "http://www.w3.org/Graphics/SVG/1.1/DTD/svg11.dtd">
<svg xmlns:xlink="http://www.w3.org/1999/xlink" width="499.889083pt" height="212.713455pt" viewBox="0 0 499.889083 212.713455" xmlns="http://www.w3.org/2000/svg" version="1.1">
 <metadata>
  <rdf:RDF xmlns:dc="http://purl.org/dc/elements/1.1/" xmlns:cc="http://creativecommons.org/ns#" xmlns:rdf="http://www.w3.org/1999/02/22-rdf-syntax-ns#">
   <cc:Work>
    <dc:type rdf:resource="http://purl.org/dc/dcmitype/StillImage"/>
    <dc:date>2026-06-20T23:51:30.483728</dc:date>
    <dc:format>image/svg+xml</dc:format>
    <dc:creator>
     <cc:Agent>
      <dc:title>Matplotlib v3.10.9, https://matplotlib.org/</dc:title>
     </cc:Agent>
    </dc:creator>
   </cc:Work>
  </rdf:RDF>
 </metadata>
 <defs>
  <style type="text/css">*{stroke-linejoin: round; stroke-linecap: butt}</style>
 </defs>
 <g id="figure_1">
  <g id="patch_1">
   <path d="M 0 212.713455 
L 499.889083 212.713455 
L 499.889083 0 
L 0 0 
z
" style="fill: #ffffff"/>
  </g>
  <g id="axes_1">
   <g id="patch_2">
    <path d="M 44.750375 156.692761 
L 493.564604 156.692761 
L 493.564604 17.67875 
L 44.750375 17.67875 
z
" style="fill: #ffffff"/>
   </g>
   <g id="matplotlib.axis_1">
    <g id="xtick_1">
     <g id="text_1">
      <text style="font-size: 8.8px; font-family: 'Arial', 'Helvetica', 'DejaVu Sans', sans-serif; fill: #262626" transform="translate(27.179445 187.737115) rotate(-28)">airplane</text>
     </g>
    </g>
    <g id="xtick_2">
     <g id="text_2">
      <text style="font-size: 8.8px; font-family: 'Arial', 'Helvetica', 'DejaVu Sans', sans-serif; fill: #262626" transform="translate(57.756418 194.20655) rotate(-28)">automobile</text>
     </g>
    </g>
    <g id="xtick_3">
     <g id="text_3">
      <text style="font-size: 8.8px; font-family: 'Arial', 'Helvetica', 'DejaVu Sans', sans-serif; fill: #262626" transform="translate(129.257902 178.916037) rotate(-28)">bird</text>
     </g>
    </g>
    <g id="xtick_4">
     <g id="text_4">
      <text style="font-size: 8.8px; font-family: 'Arial', 'Helvetica', 'DejaVu Sans', sans-serif; fill: #262626" transform="translate(175.004468 177.319658) rotate(-28)">cat</text>
     </g>
    </g>
    <g id="xtick_5">
     <g id="text_5">
      <text style="font-size: 8.8px; font-family: 'Arial', 'Helvetica', 'DejaVu Sans', sans-serif; fill: #262626" transform="translate(212.139755 180.301976) rotate(-28)">deer</text>
     </g>
    </g>
    <g id="xtick_6">
     <g id="text_6">
      <text style="font-size: 8.8px; font-family: 'Arial', 'Helvetica', 'DejaVu Sans', sans-serif; fill: #262626" transform="translate(257.953093 178.670093) rotate(-28)">dog</text>
     </g>
    </g>
    <g id="xtick_7">
     <g id="text_7">
      <text style="font-size: 8.8px; font-family: 'Arial', 'Helvetica', 'DejaVu Sans', sans-serif; fill: #262626" transform="translate(299.875392 179.107112) rotate(-28)">frog</text>
     </g>
    </g>
    <g id="xtick_8">
     <g id="text_8">
      <text style="font-size: 8.8px; font-family: 'Arial', 'Helvetica', 'DejaVu Sans', sans-serif; fill: #262626" transform="translate(336.359947 182.435431) rotate(-28)">horse</text>
     </g>
    </g>
    <g id="xtick_9">
     <g id="text_9">
      <text style="font-size: 8.8px; font-family: 'Arial', 'Helvetica', 'DejaVu Sans', sans-serif; fill: #262626" transform="translate(384.742221 179.43762) rotate(-28)">ship</text>
     </g>
    </g>
    <g id="xtick_10">
     <g id="text_10">
      <text style="font-size: 8.8px; font-family: 'Arial', 'Helvetica', 'DejaVu Sans', sans-serif; fill: #262626" transform="translate(423.613605 181.49684) rotate(-28)">truck</text>
     </g>
    </g>
    <g id="text_11">
     <text style="font-size: 9.6px; font-family: 'Arial', 'Helvetica', 'DejaVu Sans', sans-serif; text-anchor: middle; fill: #262626" x="269.157489" y="207.116955" transform="rotate(-0 269.157489 207.116955)">CIFAR-10 class</text>
    </g>
   </g>
   <g id="matplotlib.axis_2">
    <g id="ytick_1">
     <g id="line2d_1">
      <path d="M 44.750375 156.692761 
L 493.564604 156.692761 
" clip-path="url(#pc5e8a92529)" style="fill: none; stroke: #e6e6e6; stroke-width: 0.55; stroke-linecap: round"/>
     </g>
     <g id="text_12">
      <text style="font-size: 8.8px; font-family: 'Arial', 'Helvetica', 'DejaVu Sans', sans-serif; text-anchor: end; fill: #262626" x="36.450375" y="160.036073" transform="rotate(-0 36.450375 160.036073)">0%</text>
     </g>
    </g>
    <g id="ytick_2">
     <g id="line2d_2">
      <path d="M 44.750375 119.622358 
L 493.564604 119.622358 
" clip-path="url(#pc5e8a92529)" style="fill: none; stroke: #e6e6e6; stroke-width: 0.55; stroke-linecap: round"/>
     </g>
     <g id="text_13">
      <text style="font-size: 8.8px; font-family: 'Arial', 'Helvetica', 'DejaVu Sans', sans-serif; text-anchor: end; fill: #262626" x="36.450375" y="122.96567" transform="rotate(-0 36.450375 122.96567)">20%</text>
     </g>
    </g>
    <g id="ytick_3">
     <g id="line2d_3">
      <path d="M 44.750375 82.551955 
L 493.564604 82.551955 
" clip-path="url(#pc5e8a92529)" style="fill: none; stroke: #e6e6e6; stroke-width: 0.55; stroke-linecap: round"/>
     </g>
     <g id="text_14">
      <text style="font-size: 8.8px; font-family: 'Arial', 'Helvetica', 'DejaVu Sans', sans-serif; text-anchor: end; fill: #262626" x="36.450375" y="85.895268" transform="rotate(-0 36.450375 85.895268)">40%</text>
     </g>
    </g>
    <g id="ytick_4">
     <g id="line2d_4">
      <path d="M 44.750375 45.481552 
L 493.564604 45.481552 
" clip-path="url(#pc5e8a92529)" style="fill: none; stroke: #e6e6e6; stroke-width: 0.55; stroke-linecap: round"/>
     </g>
     <g id="text_15">
      <text style="font-size: 8.8px; font-family: 'Arial', 'Helvetica', 'DejaVu Sans', sans-serif; text-anchor: end; fill: #262626" x="36.450375" y="48.824865" transform="rotate(-0 36.450375 48.824865)">60%</text>
     </g>
    </g>
    <g id="text_16">
     <text style="font-size: 9.6px; font-family: 'Arial', 'Helvetica', 'DejaVu Sans', sans-serif; text-anchor: middle; fill: #262626" x="10.8945" y="87.185755" transform="rotate(-90 10.8945 87.185755)">PGD-20 robust accuracy</text>
    </g>
   </g>
   <g id="patch_3">
    <path d="M 44.750375 156.692761 
L 44.750375 17.67875 
" style="fill: none; stroke: #555555; stroke-linejoin: miter; stroke-linecap: square"/>
   </g>
   <g id="patch_4">
    <path d="M 44.750375 156.692761 
L 493.564604 156.692761 
" style="fill: none; stroke: #555555; stroke-linejoin: miter; stroke-linecap: square"/>
   </g>
   <g id="line2d_5">
    <path d="M 59.710849 52.687622 
L 102.455062 32.629489 
L 145.199274 124.12044 
L 187.943486 134.203867 
L 230.687698 119.467252 
L 273.431911 87.565575 
L 316.176123 70.147073 
L 358.920335 55.692561 
L 401.664547 74.993912 
L 444.408759 40.175537 
" clip-path="url(#pc5e8a92529)" style="fill: none; stroke: #3b73b9; stroke-width: 1.35; stroke-linecap: round"/>
    <defs>
     <path id="mf84260054e" d="M 0 1.6 
C 0.424325 1.6 0.831328 1.431414 1.131371 1.131371 
C 1.431414 0.831328 1.6 0.424325 1.6 0 
C 1.6 -0.424325 1.431414 -0.831328 1.131371 -1.131371 
C 0.831328 -1.431414 0.424325 -1.6 0 -1.6 
C -0.424325 -1.6 -0.831328 -1.431414 -1.131371 -1.131371 
C -1.431414 -0.831328 -1.6 -0.424325 -1.6 0 
C -1.6 0.424325 -1.431414 0.831328 -1.131371 1.131371 
C -0.831328 1.431414 -0.424325 1.6 0 1.6 
z
" style="stroke: #3b73b9"/>
    </defs>
    <g clip-path="url(#pc5e8a92529)">
     <use xlink:href="#mf84260054e" x="59.710849" y="52.687622" style="fill: #3b73b9; stroke: #3b73b9"/>
     <use xlink:href="#mf84260054e" x="102.455062" y="32.629489" style="fill: #3b73b9; stroke: #3b73b9"/>
     <use xlink:href="#mf84260054e" x="145.199274" y="124.12044" style="fill: #3b73b9; stroke: #3b73b9"/>
     <use xlink:href="#mf84260054e" x="187.943486" y="134.203867" style="fill: #3b73b9; stroke: #3b73b9"/>
     <use xlink:href="#mf84260054e" x="230.687698" y="119.467252" style="fill: #3b73b9; stroke: #3b73b9"/>
     <use xlink:href="#mf84260054e" x="273.431911" y="87.565575" style="fill: #3b73b9; stroke: #3b73b9"/>
     <use xlink:href="#mf84260054e" x="316.176123" y="70.147073" style="fill: #3b73b9; stroke: #3b73b9"/>
     <use xlink:href="#mf84260054e" x="358.920335" y="55.692561" style="fill: #3b73b9; stroke: #3b73b9"/>
     <use xlink:href="#mf84260054e" x="401.664547" y="74.993912" style="fill: #3b73b9; stroke: #3b73b9"/>
     <use xlink:href="#mf84260054e" x="444.408759" y="40.175537" style="fill: #3b73b9; stroke: #3b73b9"/>
    </g>
   </g>
   <g id="text_17">
    <text style="font-size: 6px; font-family: 'Arial', 'Helvetica', 'DejaVu Sans', sans-serif; text-anchor: start; fill: #3b73b9" x="451.247833" y="41.831162" transform="rotate(-0 451.247833 41.831162)">FGSM-AT</text>
   </g>
   <g id="line2d_6">
    <path d="M 59.710849 57.887879 
L 102.455062 54.916304 
L 145.199274 131.487989 
L 187.943486 140.732901 
L 230.687698 121.018315 
L 273.431911 103.138183 
L 316.176123 64.737968 
L 358.920335 71.601018 
L 401.664547 46.201366 
L 444.408759 76.74402 
" clip-path="url(#pc5e8a92529)" style="fill: none; stroke: #7a5aa6; stroke-width: 1.35; stroke-linecap: round"/>
    <defs>
     <path id="md7596f0b69" d="M 0 1.6 
C 0.424325 1.6 0.831328 1.431414 1.131371 1.131371 
C 1.431414 0.831328 1.6 0.424325 1.6 0 
C 1.6 -0.424325 1.431414 -0.831328 1.131371 -1.131371 
C 0.831328 -1.431414 0.424325 -1.6 0 -1.6 
C -0.424325 -1.6 -0.831328 -1.431414 -1.131371 -1.131371 
C -1.431414 -0.831328 -1.6 -0.424325 -1.6 0 
C -1.6 0.424325 -1.431414 0.831328 -1.131371 1.131371 
C -0.831328 1.431414 -0.424325 1.6 0 1.6 
z
" style="stroke: #7a5aa6"/>
    </defs>
    <g clip-path="url(#pc5e8a92529)">
     <use xlink:href="#md7596f0b69" x="59.710849" y="57.887879" style="fill: #7a5aa6; stroke: #7a5aa6"/>
     <use xlink:href="#md7596f0b69" x="102.455062" y="54.916304" style="fill: #7a5aa6; stroke: #7a5aa6"/>
     <use xlink:href="#md7596f0b69" x="145.199274" y="131.487989" style="fill: #7a5aa6; stroke: #7a5aa6"/>
     <use xlink:href="#md7596f0b69" x="187.943486" y="140.732901" style="fill: #7a5aa6; stroke: #7a5aa6"/>
     <use xlink:href="#md7596f0b69" x="230.687698" y="121.018315" style="fill: #7a5aa6; stroke: #7a5aa6"/>
     <use xlink:href="#md7596f0b69" x="273.431911" y="103.138183" style="fill: #7a5aa6; stroke: #7a5aa6"/>
     <use xlink:href="#md7596f0b69" x="316.176123" y="64.737968" style="fill: #7a5aa6; stroke: #7a5aa6"/>
     <use xlink:href="#md7596f0b69" x="358.920335" y="71.601018" style="fill: #7a5aa6; stroke: #7a5aa6"/>
     <use xlink:href="#md7596f0b69" x="401.664547" y="46.201366" style="fill: #7a5aa6; stroke: #7a5aa6"/>
     <use xlink:href="#md7596f0b69" x="444.408759" y="76.74402" style="fill: #7a5aa6; stroke: #7a5aa6"/>
    </g>
   </g>
   <g id="text_18">
    <text style="font-size: 6px; font-family: 'Arial', 'Helvetica', 'DejaVu Sans', sans-serif; text-anchor: start; fill: #7a5aa6" x="451.247833" y="78.399645" transform="rotate(-0 451.247833 78.399645)">PGD-AT</text>
   </g>
   <g id="line2d_7">
    <path d="M 59.710849 73.48865 
L 102.455062 54.17341 
L 145.199274 122.569377 
L 187.943486 138.193832 
L 230.687698 123.344909 
L 273.431911 101.239084 
L 316.176123 74.834965 
L 358.920335 75.300659 
L 401.664547 42.242391 
L 444.408759 69.573729 
" clip-path="url(#pc5e8a92529)" style="fill: none; stroke: #d9822b; stroke-width: 1.35; stroke-linecap: round"/>
    <defs>
     <path id="mbb327cf367" d="M 0 1.6 
C 0.424325 1.6 0.831328 1.431414 1.131371 1.131371 
C 1.431414 0.831328 1.6 0.424325 1.6 0 
C 1.6 -0.424325 1.431414 -0.831328 1.131371 -1.131371 
C 0.831328 -1.431414 0.424325 -1.6 0 -1.6 
C -0.424325 -1.6 -0.831328 -1.431414 -1.131371 -1.131371 
C -1.431414 -0.831328 -1.6 -0.424325 -1.6 0 
C -1.6 0.424325 -1.431414 0.831328 -1.131371 1.131371 
C -0.831328 1.431414 -0.424325 1.6 0 1.6 
z
" style="stroke: #d9822b"/>
    </defs>
    <g clip-path="url(#pc5e8a92529)">
     <use xlink:href="#mbb327cf367" x="59.710849" y="73.48865" style="fill: #d9822b; stroke: #d9822b"/>
     <use xlink:href="#mbb327cf367" x="102.455062" y="54.17341" style="fill: #d9822b; stroke: #d9822b"/>
     <use xlink:href="#mbb327cf367" x="145.199274" y="122.569377" style="fill: #d9822b; stroke: #d9822b"/>
     <use xlink:href="#mbb327cf367" x="187.943486" y="138.193832" style="fill: #d9822b; stroke: #d9822b"/>
     <use xlink:href="#mbb327cf367" x="230.687698" y="123.344909" style="fill: #d9822b; stroke: #d9822b"/>
     <use xlink:href="#mbb327cf367" x="273.431911" y="101.239084" style="fill: #d9822b; stroke: #d9822b"/>
     <use xlink:href="#mbb327cf367" x="316.176123" y="74.834965" style="fill: #d9822b; stroke: #d9822b"/>
     <use xlink:href="#mbb327cf367" x="358.920335" y="75.300659" style="fill: #d9822b; stroke: #d9822b"/>
     <use xlink:href="#mbb327cf367" x="401.664547" y="42.242391" style="fill: #d9822b; stroke: #d9822b"/>
     <use xlink:href="#mbb327cf367" x="444.408759" y="69.573729" style="fill: #d9822b; stroke: #d9822b"/>
    </g>
   </g>
   <g id="text_19">
    <text style="font-size: 6px; font-family: 'Arial', 'Helvetica', 'DejaVu Sans', sans-serif; text-anchor: start; fill: #d9822b" x="451.247833" y="71.229354" transform="rotate(-0 451.247833 71.229354)">Fixed mixed AT</text>
   </g>
   <g id="text_20">
    <text style="font-size: 8px; font-family: 'Arial', 'Helvetica', 'DejaVu Sans', sans-serif; text-anchor: start; fill: #262626" x="44.750375" y="9.67875" transform="rotate(-0 44.750375 9.67875)">Class-level PGD-20 robustness remains uneven across adversarial-training recipes</text>
   </g>
  </g>
 </g>
 <defs>
  <clipPath id="pc5e8a92529">
   <rect x="44.750375" y="17.67875" width="448.814229" height="139.014011"/>
  </clipPath>
 </defs>
</svg>
